<svg width="317" height="15" viewBox="0 0 317 15" fill="none" xmlns="http://www.w3.org/2000/svg">
<path d="M1.048 12.08C0.845333 12.08 0.685333 12.0213 0.568 11.904C0.450667 11.776 0.392 11.6107 0.392 11.408V1.312C0.392 1.10933 0.450667 0.949333 0.568 0.832C0.685333 0.704 0.845333 0.639999 1.048 0.639999C1.25067 0.639999 1.41067 0.704 1.528 0.832C1.64533 0.949333 1.704 1.10933 1.704 1.312V11.408C1.704 11.6107 1.64533 11.776 1.528 11.904C1.41067 12.0213 1.25067 12.08 1.048 12.08ZM11.8028 4.016C13.7548 4.016 14.7308 5.04 14.7308 7.088V11.44C14.7308 11.632 14.6721 11.7867 14.5547 11.904C14.4481 12.0213 14.2988 12.08 14.1068 12.08C13.9147 12.08 13.7601 12.0213 13.6428 11.904C13.5254 11.7867 13.4668 11.632 13.4668 11.44V10.672C13.2641 11.1307 12.9548 11.488 12.5388 11.744C12.1228 11.9893 11.6428 12.112 11.0987 12.112C10.5974 12.112 10.1334 12.0107 9.70675 11.808C9.29075 11.6053 8.96008 11.3227 8.71475 10.96C8.46942 10.5973 8.34675 10.1973 8.34675 9.76C8.34675 9.17333 8.49608 8.72 8.79475 8.4C9.09342 8.06933 9.58408 7.83467 10.2667 7.696C10.9494 7.54667 11.8987 7.472 13.1147 7.472H13.4668V6.944C13.4668 6.304 13.3334 5.83467 13.0668 5.536C12.8108 5.23733 12.3894 5.088 11.8028 5.088C11.0774 5.088 10.3414 5.28533 9.59475 5.68C9.30675 5.86133 9.10408 5.952 8.98675 5.952C8.85875 5.952 8.75208 5.904 8.66675 5.808C8.58142 5.712 8.53875 5.58933 8.53875 5.44C8.53875 5.29067 8.58142 5.16267 8.66675 5.056C8.76275 4.93867 8.91208 4.82133 9.11475 4.704C9.48808 4.49067 9.90942 4.32533 10.3787 4.208C10.8587 4.08 11.3334 4.016 11.8028 4.016ZM11.2747 11.088C11.9148 11.088 12.4374 10.8747 12.8428 10.448C13.2588 10.0107 13.4668 9.45067 13.4668 8.768V8.304H13.1788C12.2401 8.304 11.5254 8.34667 11.0347 8.432C10.5441 8.50667 10.1921 8.64 9.97875 8.832C9.77608 9.01333 9.67475 9.28533 9.67475 9.648C9.67475 10.064 9.82408 10.4107 10.1228 10.688C10.4321 10.9547 10.8161 11.088 11.2747 11.088ZM20.4191 12.112C19.6938 12.112 19.0485 11.9467 18.4831 11.616C17.9285 11.2853 17.4965 10.816 17.1871 10.208C16.8885 9.6 16.7391 8.896 16.7391 8.096C16.7391 7.296 16.8938 6.58667 17.2031 5.968C17.5231 5.34933 17.9658 4.86933 18.5311 4.528C19.0965 4.18667 19.7471 4.016 20.4831 4.016C20.8885 4.016 21.2885 4.07467 21.6831 4.192C22.0885 4.29867 22.4405 4.45867 22.7391 4.672C22.9311 4.8 23.0645 4.928 23.1391 5.056C23.2245 5.17333 23.2671 5.30667 23.2671 5.456C23.2671 5.60533 23.2245 5.728 23.1391 5.824C23.0645 5.92 22.9631 5.968 22.8351 5.968C22.7605 5.968 22.6805 5.94667 22.5951 5.904C22.5098 5.86133 22.4351 5.81867 22.3711 5.776C22.3178 5.73333 22.2805 5.70667 22.2591 5.696C21.9818 5.51467 21.7151 5.37067 21.4591 5.264C21.2138 5.15733 20.9098 5.104 20.5471 5.104C19.7685 5.104 19.1605 5.37067 18.7231 5.904C18.2965 6.42667 18.0831 7.15733 18.0831 8.096C18.0831 9.03467 18.2965 9.76 18.7231 10.272C19.1605 10.784 19.7685 11.04 20.5471 11.04C20.9098 11.04 21.2191 10.9867 21.4751 10.88C21.7418 10.7733 22.0085 10.6293 22.2751 10.448C22.3925 10.3733 22.5045 10.3093 22.6111 10.256C22.7178 10.2027 22.8085 10.176 22.8831 10.176C23.0005 10.176 23.0965 10.224 23.1711 10.32C23.2565 10.416 23.2991 10.5387 23.2991 10.688C23.2991 10.8267 23.2618 10.9547 23.1871 11.072C23.1125 11.1787 22.9738 11.3013 22.7711 11.44C22.4725 11.6427 22.1098 11.808 21.6831 11.936C21.2671 12.0533 20.8458 12.112 20.4191 12.112ZM28.1754 12.112C27.45 12.112 26.8047 11.9467 26.2394 11.616C25.6847 11.2853 25.2527 10.816 24.9434 10.208C24.6447 9.6 24.4954 8.896 24.4954 8.096C24.4954 7.296 24.65 6.58667 24.9594 5.968C25.2794 5.34933 25.722 4.86933 26.2874 4.528C26.8527 4.18667 27.5034 4.016 28.2394 4.016C28.6447 4.016 29.0447 4.07467 29.4394 4.192C29.8447 4.29867 30.1967 4.45867 30.4954 4.672C30.6874 4.8 30.8207 4.928 30.8954 5.056C30.9807 5.17333 31.0234 5.30667 31.0234 5.456C31.0234 5.60533 30.9807 5.728 30.8954 5.824C30.8207 5.92 30.7194 5.968 30.5914 5.968C30.5167 5.968 30.4367 5.94667 30.3514 5.904C30.266 5.86133 30.1914 5.81867 30.1274 5.776C30.074 5.73333 30.0367 5.70667 30.0154 5.696C29.738 5.51467 29.4714 5.37067 29.2154 5.264C28.97 5.15733 28.666 5.104 28.3034 5.104C27.5247 5.104 26.9167 5.37067 26.4794 5.904C26.0527 6.42667 25.8394 7.15733 25.8394 8.096C25.8394 9.03467 26.0527 9.76 26.4794 10.272C26.9167 10.784 27.5247 11.04 28.3034 11.04C28.666 11.04 28.9754 10.9867 29.2314 10.88C29.498 10.7733 29.7647 10.6293 30.0314 10.448C30.1487 10.3733 30.2607 10.3093 30.3674 10.256C30.474 10.2027 30.5647 10.176 30.6394 10.176C30.7567 10.176 30.8527 10.224 30.9274 10.32C31.0127 10.416 31.0554 10.5387 31.0554 10.688C31.0554 10.8267 31.018 10.9547 30.9434 11.072C30.8687 11.1787 30.73 11.3013 30.5274 11.44C30.2287 11.6427 29.866 11.808 29.4394 11.936C29.0234 12.0533 28.602 12.112 28.1754 12.112ZM38.7476 10.192C38.865 10.192 38.9663 10.24 39.0516 10.336C39.137 10.432 39.1796 10.5547 39.1796 10.704C39.1796 10.9707 38.993 11.216 38.6196 11.44C38.2356 11.664 37.8303 11.8347 37.4036 11.952C36.977 12.0587 36.561 12.112 36.1556 12.112C34.9503 12.112 33.9956 11.7547 33.2916 11.04C32.5983 10.3253 32.2516 9.33867 32.2516 8.08C32.2516 7.28 32.4063 6.576 32.7156 5.968C33.025 5.34933 33.457 4.86933 34.0116 4.528C34.577 4.18667 35.217 4.016 35.9316 4.016C36.945 4.016 37.7503 4.34667 38.3476 5.008C38.945 5.66933 39.2436 6.56533 39.2436 7.696C39.2436 7.90933 39.201 8.064 39.1156 8.16C39.0303 8.256 38.8916 8.304 38.6996 8.304H33.5476C33.6436 10.1387 34.513 11.056 36.1556 11.056C36.5716 11.056 36.929 11.0027 37.2276 10.896C37.5263 10.7787 37.8463 10.624 38.1876 10.432C38.465 10.272 38.6516 10.192 38.7476 10.192ZM35.9476 5.024C35.265 5.024 34.7156 5.23733 34.2996 5.664C33.8943 6.09067 33.6543 6.69333 33.5796 7.472H38.1076C38.0863 6.68267 37.889 6.08 37.5156 5.664C37.1423 5.23733 36.6196 5.024 35.9476 5.024ZM45.1731 4.016C45.8558 4.016 46.4585 4.18667 46.9811 4.528C47.5038 4.86933 47.9091 5.34933 48.1971 5.968C48.4851 6.576 48.6291 7.28533 48.6291 8.096C48.6291 8.90667 48.4851 9.616 48.1971 10.224C47.9091 10.8213 47.5038 11.2853 46.9811 11.616C46.4691 11.9467 45.8665 12.112 45.1731 12.112C44.5651 12.112 44.0318 11.9787 43.5731 11.712C43.1251 11.4453 42.7838 11.0667 42.5491 10.576V14.336C42.5491 14.528 42.4905 14.6773 42.3731 14.784C42.2665 14.9013 42.1118 14.96 41.9091 14.96C41.7065 14.96 41.5465 14.9013 41.4291 14.784C41.3118 14.6667 41.2531 14.5173 41.2531 14.336V4.688C41.2531 4.496 41.3118 4.34133 41.4291 4.224C41.5465 4.10667 41.7065 4.048 41.9091 4.048C42.1118 4.048 42.2665 4.10667 42.3731 4.224C42.4905 4.34133 42.5491 4.496 42.5491 4.688V5.552C42.7838 5.06133 43.1251 4.68267 43.5731 4.416C44.0318 4.14933 44.5651 4.016 45.1731 4.016ZM44.9171 11.04C45.6745 11.04 46.2611 10.784 46.6771 10.272C47.0931 9.76 47.3011 9.03467 47.3011 8.096C47.3011 7.15733 47.0931 6.42667 46.6771 5.904C46.2611 5.37067 45.6745 5.104 44.9171 5.104C44.1598 5.104 43.5731 5.36 43.1571 5.872C42.7518 6.384 42.5491 7.11467 42.5491 8.064C42.5491 9.01333 42.7518 9.74933 43.1571 10.272C43.5731 10.784 44.1598 11.04 44.9171 11.04ZM54.25 11.056C54.6233 11.088 54.81 11.2587 54.81 11.568C54.81 11.7493 54.7407 11.888 54.602 11.984C54.474 12.0693 54.2767 12.1013 54.01 12.08L53.578 12.048C52.7247 11.984 52.0953 11.728 51.69 11.28C51.2847 10.832 51.082 10.1547 51.082 9.248V5.232H50.01C49.8287 5.232 49.6847 5.18933 49.578 5.104C49.482 5.008 49.434 4.88533 49.434 4.736C49.434 4.576 49.482 4.448 49.578 4.352C49.6847 4.256 49.8287 4.208 50.01 4.208H51.082V2.4C51.082 2.19733 51.1407 2.04267 51.258 1.936C51.3753 1.81867 51.5353 1.76 51.738 1.76C51.93 1.76 52.0847 1.81867 52.202 1.936C52.3193 2.04267 52.378 2.19733 52.378 2.4V4.208H54.154C54.3247 4.208 54.458 4.256 54.554 4.352C54.6607 4.448 54.714 4.576 54.714 4.736C54.714 4.88533 54.6607 5.008 54.554 5.104C54.458 5.18933 54.3247 5.232 54.154 5.232H52.378V9.312C52.378 9.89867 52.4953 10.3253 52.73 10.592C52.9753 10.848 53.338 10.992 53.818 11.024L54.25 11.056ZM64.0125 11.056C64.3858 11.088 64.5725 11.2587 64.5725 11.568C64.5725 11.7493 64.5032 11.888 64.3645 11.984C64.2365 12.0693 64.0392 12.1013 63.7725 12.08L63.3405 12.048C62.4872 11.984 61.8578 11.728 61.4525 11.28C61.0472 10.832 60.8445 10.1547 60.8445 9.248V5.232H59.7725C59.5912 5.232 59.4472 5.18933 59.3405 5.104C59.2445 5.008 59.1965 4.88533 59.1965 4.736C59.1965 4.576 59.2445 4.448 59.3405 4.352C59.4472 4.256 59.5912 4.208 59.7725 4.208H60.8445V2.4C60.8445 2.19733 60.9032 2.04267 61.0205 1.936C61.1378 1.81867 61.2978 1.76 61.5005 1.76C61.6925 1.76 61.8472 1.81867 61.9645 1.936C62.0818 2.04267 62.1405 2.19733 62.1405 2.4V4.208H63.9165C64.0872 4.208 64.2205 4.256 64.3165 4.352C64.4232 4.448 64.4765 4.576 64.4765 4.736C64.4765 4.88533 64.4232 5.008 64.3165 5.104C64.2205 5.18933 64.0872 5.232 63.9165 5.232H62.1405V9.312C62.1405 9.89867 62.2578 10.3253 62.4925 10.592C62.7378 10.848 63.1005 10.992 63.5805 11.024L64.0125 11.056ZM69.886 4.016C70.8033 4.016 71.4967 4.27733 71.966 4.8C72.4353 5.312 72.67 6.08 72.67 7.104V11.44C72.67 11.6427 72.6113 11.8027 72.494 11.92C72.3767 12.0267 72.222 12.08 72.03 12.08C71.8273 12.08 71.6673 12.0267 71.55 11.92C71.4327 11.8027 71.374 11.6427 71.374 11.44V7.136C71.374 6.44267 71.23 5.93067 70.942 5.6C70.6647 5.26933 70.2167 5.104 69.598 5.104C68.8833 5.104 68.3127 5.32267 67.886 5.76C67.4593 6.19733 67.246 6.78933 67.246 7.536V11.44C67.246 11.6427 67.1873 11.8027 67.07 11.92C66.9633 12.0267 66.8087 12.08 66.606 12.08C66.4033 12.08 66.2433 12.0267 66.126 11.92C66.0087 11.8027 65.95 11.6427 65.95 11.44V1.264C65.95 1.08267 66.0087 0.933333 66.126 0.815999C66.254 0.698666 66.414 0.639999 66.606 0.639999C66.8087 0.639999 66.9633 0.698666 67.07 0.815999C67.1873 0.922666 67.246 1.072 67.246 1.264V5.456C67.502 4.98667 67.8593 4.62933 68.318 4.384C68.7767 4.13867 69.2993 4.016 69.886 4.016ZM81.1757 10.192C81.2931 10.192 81.3944 10.24 81.4797 10.336C81.5651 10.432 81.6077 10.5547 81.6077 10.704C81.6077 10.9707 81.4211 11.216 81.0477 11.44C80.6637 11.664 80.2584 11.8347 79.8317 11.952C79.4051 12.0587 78.9891 12.112 78.5837 12.112C77.3784 12.112 76.4237 11.7547 75.7197 11.04C75.0264 10.3253 74.6797 9.33867 74.6797 8.08C74.6797 7.28 74.8344 6.576 75.1437 5.968C75.4531 5.34933 75.8851 4.86933 76.4397 4.528C77.0051 4.18667 77.6451 4.016 78.3597 4.016C79.3731 4.016 80.1784 4.34667 80.7757 5.008C81.3731 5.66933 81.6717 6.56533 81.6717 7.696C81.6717 7.90933 81.6291 8.064 81.5437 8.16C81.4584 8.256 81.3197 8.304 81.1277 8.304H75.9757C76.0717 10.1387 76.9411 11.056 78.5837 11.056C78.9997 11.056 79.3571 11.0027 79.6557 10.896C79.9544 10.7787 80.2744 10.624 80.6157 10.432C80.8931 10.272 81.0797 10.192 81.1757 10.192ZM78.3757 5.024C77.6931 5.024 77.1437 5.23733 76.7277 5.664C76.3224 6.09067 76.0824 6.69333 76.0077 7.472H80.5357C80.5144 6.68267 80.3171 6.08 79.9437 5.664C79.5704 5.23733 79.0477 5.024 78.3757 5.024ZM190.312 4.016C192.264 4.016 193.24 5.04 193.24 7.088V11.44C193.24 11.632 193.181 11.7867 193.064 11.904C192.957 12.0213 192.808 12.08 192.616 12.08C192.424 12.08 192.269 12.0213 192.152 11.904C192.035 11.7867 191.976 11.632 191.976 11.44V10.672C191.773 11.1307 191.464 11.488 191.048 11.744C190.632 11.9893 190.152 12.112 189.608 12.112C189.107 12.112 188.643 12.0107 188.216 11.808C187.8 11.6053 187.469 11.3227 187.224 10.96C186.979 10.5973 186.856 10.1973 186.856 9.76C186.856 9.17333 187.005 8.72 187.304 8.4C187.603 8.06933 188.093 7.83467 188.776 7.696C189.459 7.54667 190.408 7.472 191.624 7.472H191.976V6.944C191.976 6.304 191.843 5.83467 191.576 5.536C191.32 5.23733 190.899 5.088 190.312 5.088C189.587 5.088 188.851 5.28533 188.104 5.68C187.816 5.86133 187.613 5.952 187.496 5.952C187.368 5.952 187.261 5.904 187.176 5.808C187.091 5.712 187.048 5.58933 187.048 5.44C187.048 5.29067 187.091 5.16267 187.176 5.056C187.272 4.93867 187.421 4.82133 187.624 4.704C187.997 4.49067 188.419 4.32533 188.888 4.208C189.368 4.08 189.843 4.016 190.312 4.016ZM189.784 11.088C190.424 11.088 190.947 10.8747 191.352 10.448C191.768 10.0107 191.976 9.45067 191.976 8.768V8.304H191.688C190.749 8.304 190.035 8.34667 189.544 8.432C189.053 8.50667 188.701 8.64 188.488 8.832C188.285 9.01333 188.184 9.28533 188.184 9.648C188.184 10.064 188.333 10.4107 188.632 10.688C188.941 10.9547 189.325 11.088 189.784 11.088ZM199.632 4.016C201.499 4.016 202.432 5.04533 202.432 7.104V11.44C202.432 11.6427 202.374 11.8027 202.256 11.92C202.15 12.0267 201.995 12.08 201.792 12.08C201.59 12.08 201.43 12.0267 201.312 11.92C201.195 11.8027 201.136 11.6427 201.136 11.44V7.184C201.136 6.45867 200.992 5.93067 200.704 5.6C200.427 5.26933 199.979 5.104 199.36 5.104C198.646 5.104 198.075 5.32267 197.648 5.76C197.222 6.19733 197.008 6.78933 197.008 7.536V11.44C197.008 11.6427 196.95 11.8027 196.832 11.92C196.726 12.0267 196.571 12.08 196.368 12.08C196.166 12.08 196.006 12.0267 195.888 11.92C195.771 11.8027 195.712 11.6427 195.712 11.44V4.688C195.712 4.496 195.771 4.34133 195.888 4.224C196.006 4.10667 196.166 4.048 196.368 4.048C196.56 4.048 196.71 4.10667 196.816 4.224C196.934 4.34133 196.992 4.49067 196.992 4.672V5.488C197.248 5.008 197.606 4.64533 198.064 4.4C198.523 4.144 199.046 4.016 199.632 4.016ZM211.162 0.639999C211.365 0.639999 211.525 0.698666 211.642 0.815999C211.76 0.933333 211.818 1.08267 211.818 1.264V11.44C211.818 11.632 211.76 11.7867 211.642 11.904C211.525 12.0213 211.365 12.08 211.162 12.08C210.96 12.08 210.8 12.0213 210.682 11.904C210.576 11.7867 210.522 11.632 210.522 11.44V10.576C210.288 11.0667 209.941 11.4453 209.482 11.712C209.034 11.9787 208.506 12.112 207.898 12.112C207.216 12.112 206.613 11.9413 206.09 11.6C205.568 11.2587 205.162 10.784 204.874 10.176C204.586 9.55733 204.442 8.84267 204.442 8.032C204.442 7.232 204.586 6.528 204.874 5.92C205.162 5.312 205.568 4.84267 206.09 4.512C206.613 4.18133 207.216 4.016 207.898 4.016C208.506 4.016 209.034 4.14933 209.482 4.416C209.941 4.68267 210.288 5.06133 210.522 5.552V1.264C210.522 1.072 210.576 0.922666 210.682 0.815999C210.8 0.698666 210.96 0.639999 211.162 0.639999ZM208.154 11.04C208.912 11.04 209.493 10.784 209.898 10.272C210.314 9.74933 210.522 9.01333 210.522 8.064C210.522 7.11467 210.314 6.384 209.898 5.872C209.493 5.36 208.912 5.104 208.154 5.104C207.397 5.104 206.805 5.36 206.378 5.872C205.962 6.384 205.754 7.104 205.754 8.032C205.754 8.98133 205.962 9.72267 206.378 10.256C206.805 10.7787 207.397 11.04 208.154 11.04Z" fill="#171725"/>
<path d="M91.4903 12.08C91.2876 12.08 91.1223 12.0213 90.9943 11.904C90.8769 11.776 90.8183 11.6107 90.8183 11.408V1.84H87.3783C87.1863 1.84 87.0369 1.792 86.9303 1.696C86.8236 1.6 86.7703 1.46133 86.7703 1.28C86.7703 1.09867 86.8236 0.959999 86.9303 0.863999C87.0369 0.767999 87.1863 0.719999 87.3783 0.719999H95.5863C95.7783 0.719999 95.9276 0.767999 96.0343 0.863999C96.1409 0.959999 96.1943 1.09867 96.1943 1.28C96.1943 1.46133 96.1409 1.6 96.0343 1.696C95.9276 1.792 95.7783 1.84 95.5863 1.84H92.1463V11.408C92.1463 11.6107 92.0876 11.776 91.9703 11.904C91.8529 12.0213 91.6929 12.08 91.4903 12.08ZM102.382 10.192C102.499 10.192 102.601 10.24 102.686 10.336C102.771 10.432 102.814 10.5547 102.814 10.704C102.814 10.9707 102.627 11.216 102.254 11.44C101.87 11.664 101.465 11.8347 101.038 11.952C100.611 12.0587 100.195 12.112 99.79 12.112C98.5847 12.112 97.63 11.7547 96.926 11.04C96.2327 10.3253 95.886 9.33867 95.886 8.08C95.886 7.28 96.0407 6.576 96.35 5.968C96.6593 5.34933 97.0913 4.86933 97.646 4.528C98.2113 4.18667 98.8513 4.016 99.566 4.016C100.579 4.016 101.385 4.34667 101.982 5.008C102.579 5.66933 102.878 6.56533 102.878 7.696C102.878 7.90933 102.835 8.064 102.75 8.16C102.665 8.256 102.526 8.304 102.334 8.304H97.182C97.278 10.1387 98.1473 11.056 99.79 11.056C100.206 11.056 100.563 11.0027 100.862 10.896C101.161 10.7787 101.481 10.624 101.822 10.432C102.099 10.272 102.286 10.192 102.382 10.192ZM99.582 5.024C98.8993 5.024 98.35 5.23733 97.934 5.664C97.5287 6.09067 97.2887 6.69333 97.214 7.472H101.742C101.721 6.68267 101.523 6.08 101.15 5.664C100.777 5.23733 100.254 5.024 99.582 5.024ZM108.744 4.048C109.192 4.016 109.416 4.19733 109.416 4.592C109.416 4.76267 109.368 4.90133 109.272 5.008C109.176 5.104 109.01 5.16267 108.776 5.184L108.296 5.232C107.581 5.296 107.048 5.552 106.696 6C106.354 6.43733 106.184 6.95467 106.184 7.552V11.44C106.184 11.6533 106.125 11.8133 106.008 11.92C105.89 12.0267 105.736 12.08 105.544 12.08C105.352 12.08 105.192 12.0267 105.064 11.92C104.946 11.8027 104.888 11.6427 104.888 11.44V4.688C104.888 4.48533 104.952 4.33067 105.08 4.224C105.208 4.10667 105.362 4.048 105.544 4.048C105.714 4.048 105.858 4.10667 105.976 4.224C106.093 4.33067 106.152 4.48 106.152 4.672V5.568C106.376 5.09867 106.69 4.74133 107.096 4.496C107.512 4.25067 107.986 4.10667 108.52 4.064L108.744 4.048ZM119.3 4.016C121.028 4.016 121.892 5.04533 121.892 7.104V11.44C121.892 11.6427 121.833 11.8027 121.716 11.92C121.599 12.0267 121.444 12.08 121.252 12.08C121.06 12.08 120.9 12.0267 120.772 11.92C120.655 11.8027 120.596 11.6427 120.596 11.44V7.136C120.596 6.42133 120.468 5.904 120.212 5.584C119.956 5.264 119.556 5.104 119.012 5.104C118.361 5.104 117.849 5.32267 117.476 5.76C117.103 6.19733 116.916 6.78933 116.916 7.536V11.44C116.916 11.6427 116.852 11.8027 116.724 11.92C116.607 12.0267 116.452 12.08 116.26 12.08C116.068 12.08 115.913 12.0267 115.796 11.92C115.679 11.8027 115.62 11.6427 115.62 11.44V7.136C115.62 6.42133 115.492 5.904 115.236 5.584C114.98 5.264 114.575 5.104 114.02 5.104C113.38 5.104 112.868 5.32267 112.484 5.76C112.111 6.19733 111.924 6.78933 111.924 7.536V11.44C111.924 11.6427 111.865 11.8027 111.748 11.92C111.631 12.0267 111.476 12.08 111.284 12.08C111.092 12.08 110.932 12.0267 110.804 11.92C110.687 11.8027 110.628 11.6427 110.628 11.44V4.688C110.628 4.496 110.687 4.34133 110.804 4.224C110.932 4.10667 111.092 4.048 111.284 4.048C111.465 4.048 111.615 4.10667 111.732 4.224C111.849 4.33067 111.908 4.48 111.908 4.672V5.44C112.143 4.98133 112.468 4.62933 112.884 4.384C113.3 4.13867 113.78 4.016 114.324 4.016C115.54 4.016 116.335 4.528 116.708 5.552C116.932 5.08267 117.273 4.70933 117.732 4.432C118.191 4.15467 118.713 4.016 119.3 4.016ZM126.977 12.112C126.486 12.112 126.017 12.0533 125.569 11.936C125.132 11.8187 124.742 11.6533 124.401 11.44C124.209 11.312 124.07 11.1947 123.985 11.088C123.91 10.9707 123.873 10.832 123.873 10.672C123.873 10.5333 123.91 10.4213 123.985 10.336C124.07 10.24 124.177 10.192 124.305 10.192C124.433 10.192 124.62 10.272 124.865 10.432C125.185 10.624 125.5 10.7787 125.809 10.896C126.129 11.0027 126.524 11.056 126.993 11.056C127.569 11.056 128.017 10.9547 128.337 10.752C128.657 10.5493 128.817 10.256 128.817 9.872C128.817 9.63733 128.758 9.45067 128.641 9.312C128.524 9.16267 128.321 9.03467 128.033 8.928C127.745 8.81067 127.324 8.69333 126.769 8.576C125.83 8.37333 125.158 8.10133 124.753 7.76C124.348 7.41867 124.145 6.95467 124.145 6.368C124.145 5.90933 124.273 5.504 124.529 5.152C124.785 4.8 125.137 4.52267 125.585 4.32C126.044 4.11733 126.561 4.016 127.137 4.016C127.553 4.016 127.953 4.07467 128.337 4.192C128.732 4.29867 129.078 4.45333 129.377 4.656C129.74 4.912 129.921 5.17867 129.921 5.456C129.921 5.59467 129.878 5.712 129.793 5.808C129.708 5.904 129.606 5.952 129.489 5.952C129.361 5.952 129.169 5.86133 128.913 5.68C128.614 5.488 128.332 5.33867 128.065 5.232C127.798 5.12533 127.468 5.072 127.073 5.072C126.572 5.072 126.166 5.184 125.857 5.408C125.558 5.632 125.409 5.93067 125.409 6.304C125.409 6.53867 125.462 6.73067 125.569 6.88C125.686 7.01867 125.873 7.14667 126.129 7.264C126.396 7.37067 126.774 7.47733 127.265 7.584C127.99 7.744 128.55 7.92 128.945 8.112C129.35 8.304 129.638 8.53867 129.809 8.816C129.98 9.09333 130.065 9.44533 130.065 9.872C130.065 10.544 129.782 11.088 129.217 11.504C128.652 11.9093 127.905 12.112 126.977 12.112ZM139.598 12.112C138.862 12.112 138.211 11.9467 137.646 11.616C137.091 11.2853 136.659 10.816 136.35 10.208C136.051 9.58933 135.902 8.87467 135.902 8.064C135.902 7.25333 136.051 6.544 136.35 5.936C136.659 5.31733 137.091 4.84267 137.646 4.512C138.211 4.18133 138.862 4.016 139.598 4.016C140.334 4.016 140.984 4.18133 141.55 4.512C142.115 4.84267 142.547 5.31733 142.846 5.936C143.155 6.544 143.31 7.25333 143.31 8.064C143.31 8.87467 143.155 9.58933 142.846 10.208C142.547 10.816 142.115 11.2853 141.55 11.616C140.984 11.9467 140.334 12.112 139.598 12.112ZM139.598 11.04C140.366 11.04 140.952 10.7893 141.358 10.288C141.774 9.776 141.982 9.03467 141.982 8.064C141.982 7.11467 141.774 6.384 141.358 5.872C140.942 5.34933 140.355 5.088 139.598 5.088C138.84 5.088 138.254 5.34933 137.838 5.872C137.422 6.384 137.214 7.11467 137.214 8.064C137.214 9.024 137.416 9.76 137.822 10.272C138.238 10.784 138.83 11.04 139.598 11.04ZM148.765 1.744C148.2 1.78667 147.773 1.968 147.485 2.288C147.197 2.59733 147.053 3.06667 147.053 3.696V4.208H148.829C149.01 4.208 149.149 4.256 149.245 4.352C149.341 4.448 149.389 4.576 149.389 4.736C149.389 4.896 149.341 5.01867 149.245 5.104C149.149 5.18933 149.01 5.232 148.829 5.232H147.053V11.44C147.053 11.6427 146.989 11.8027 146.861 11.92C146.744 12.0267 146.594 12.08 146.413 12.08C146.221 12.08 146.061 12.0267 145.933 11.92C145.816 11.8027 145.757 11.6427 145.757 11.44V5.232H144.685C144.504 5.232 144.36 5.18933 144.253 5.104C144.157 5.008 144.109 4.88533 144.109 4.736C144.109 4.576 144.157 4.448 144.253 4.352C144.36 4.256 144.504 4.208 144.685 4.208H145.757V3.92C145.757 2.96 145.997 2.208 146.477 1.664C146.957 1.10933 147.645 0.8 148.541 0.735999L148.957 0.704C149.234 0.682666 149.432 0.709333 149.549 0.783999C149.677 0.858666 149.741 0.992 149.741 1.184C149.741 1.49333 149.554 1.66933 149.181 1.712L148.765 1.744ZM159.492 12.128C158.02 12.128 156.905 11.744 156.148 10.976C155.391 10.208 155.012 9.07733 155.012 7.584V1.312C155.012 1.10933 155.071 0.949333 155.188 0.832C155.305 0.704 155.465 0.639999 155.668 0.639999C155.86 0.639999 156.015 0.704 156.132 0.832C156.249 0.949333 156.308 1.10933 156.308 1.312V7.696C156.308 8.79467 156.575 9.62133 157.108 10.176C157.652 10.7307 158.447 11.008 159.492 11.008C160.537 11.008 161.327 10.7307 161.86 10.176C162.393 9.62133 162.66 8.79467 162.66 7.696V1.312C162.66 1.10933 162.719 0.949333 162.836 0.832C162.964 0.704 163.124 0.639999 163.316 0.639999C163.519 0.639999 163.679 0.704 163.796 0.832C163.913 0.949333 163.972 1.10933 163.972 1.312V7.584C163.972 9.06667 163.588 10.1973 162.82 10.976C162.063 11.744 160.953 12.128 159.492 12.128ZM169.202 12.112C168.711 12.112 168.242 12.0533 167.794 11.936C167.357 11.8187 166.967 11.6533 166.626 11.44C166.434 11.312 166.295 11.1947 166.21 11.088C166.135 10.9707 166.098 10.832 166.098 10.672C166.098 10.5333 166.135 10.4213 166.21 10.336C166.295 10.24 166.402 10.192 166.53 10.192C166.658 10.192 166.845 10.272 167.09 10.432C167.41 10.624 167.725 10.7787 168.034 10.896C168.354 11.0027 168.749 11.056 169.218 11.056C169.794 11.056 170.242 10.9547 170.562 10.752C170.882 10.5493 171.042 10.256 171.042 9.872C171.042 9.63733 170.983 9.45067 170.866 9.312C170.749 9.16267 170.546 9.03467 170.258 8.928C169.97 8.81067 169.549 8.69333 168.994 8.576C168.055 8.37333 167.383 8.10133 166.978 7.76C166.573 7.41867 166.37 6.95467 166.37 6.368C166.37 5.90933 166.498 5.504 166.754 5.152C167.01 4.8 167.362 4.52267 167.81 4.32C168.269 4.11733 168.786 4.016 169.362 4.016C169.778 4.016 170.178 4.07467 170.562 4.192C170.957 4.29867 171.303 4.45333 171.602 4.656C171.965 4.912 172.146 5.17867 172.146 5.456C172.146 5.59467 172.103 5.712 172.018 5.808C171.933 5.904 171.831 5.952 171.714 5.952C171.586 5.952 171.394 5.86133 171.138 5.68C170.839 5.488 170.557 5.33867 170.29 5.232C170.023 5.12533 169.693 5.072 169.298 5.072C168.797 5.072 168.391 5.184 168.082 5.408C167.783 5.632 167.634 5.93067 167.634 6.304C167.634 6.53867 167.687 6.73067 167.794 6.88C167.911 7.01867 168.098 7.14667 168.354 7.264C168.621 7.37067 168.999 7.47733 169.49 7.584C170.215 7.744 170.775 7.92 171.17 8.112C171.575 8.304 171.863 8.53867 172.034 8.816C172.205 9.09333 172.29 9.44533 172.29 9.872C172.29 10.544 172.007 11.088 171.442 11.504C170.877 11.9093 170.13 12.112 169.202 12.112ZM180.398 10.192C180.515 10.192 180.616 10.24 180.702 10.336C180.787 10.432 180.83 10.5547 180.83 10.704C180.83 10.9707 180.643 11.216 180.27 11.44C179.886 11.664 179.48 11.8347 179.054 11.952C178.627 12.0587 178.211 12.112 177.806 12.112C176.6 12.112 175.646 11.7547 174.942 11.04C174.248 10.3253 173.902 9.33867 173.902 8.08C173.902 7.28 174.056 6.576 174.366 5.968C174.675 5.34933 175.107 4.86933 175.662 4.528C176.227 4.18667 176.867 4.016 177.582 4.016C178.595 4.016 179.4 4.34667 179.998 5.008C180.595 5.66933 180.894 6.56533 180.894 7.696C180.894 7.90933 180.851 8.064 180.766 8.16C180.68 8.256 180.542 8.304 180.35 8.304H175.198C175.294 10.1387 176.163 11.056 177.806 11.056C178.222 11.056 178.579 11.0027 178.878 10.896C179.176 10.7787 179.496 10.624 179.838 10.432C180.115 10.272 180.302 10.192 180.398 10.192ZM177.598 5.024C176.915 5.024 176.366 5.23733 175.95 5.664C175.544 6.09067 175.304 6.69333 175.23 7.472H179.758C179.736 6.68267 179.539 6.08 179.166 5.664C178.792 5.23733 178.27 5.024 177.598 5.024ZM219.392 12.08C219.189 12.08 219.029 12.0213 218.912 11.904C218.794 11.776 218.736 11.6107 218.736 11.408V1.36C218.736 1.168 218.794 1.01333 218.912 0.896C219.04 0.778666 219.205 0.719999 219.408 0.719999H223.2C224.384 0.719999 225.301 1.008 225.952 1.584C226.613 2.16 226.944 2.976 226.944 4.032C226.944 5.088 226.613 5.90933 225.952 6.496C225.29 7.08267 224.373 7.376 223.2 7.376H220.048V11.408C220.048 11.6107 219.989 11.776 219.872 11.904C219.754 12.0213 219.594 12.08 219.392 12.08ZM223.072 6.288C224.789 6.288 225.648 5.536 225.648 4.032C225.648 2.54933 224.789 1.808 223.072 1.808H220.048V6.288H223.072ZM232.656 4.048C233.104 4.016 233.328 4.19733 233.328 4.592C233.328 4.76267 233.28 4.90133 233.184 5.008C233.088 5.104 232.923 5.16267 232.688 5.184L232.208 5.232C231.493 5.296 230.96 5.552 230.608 6C230.267 6.43733 230.096 6.95467 230.096 7.552V11.44C230.096 11.6533 230.037 11.8133 229.92 11.92C229.803 12.0267 229.648 12.08 229.456 12.08C229.264 12.08 229.104 12.0267 228.976 11.92C228.859 11.8027 228.8 11.6427 228.8 11.44V4.688C228.8 4.48533 228.864 4.33067 228.992 4.224C229.12 4.10667 229.275 4.048 229.456 4.048C229.627 4.048 229.771 4.10667 229.888 4.224C230.005 4.33067 230.064 4.48 230.064 4.672V5.568C230.288 5.09867 230.603 4.74133 231.008 4.496C231.424 4.25067 231.899 4.10667 232.432 4.064L232.656 4.048ZM235.197 12.08C235.005 12.08 234.845 12.0267 234.717 11.92C234.599 11.8027 234.541 11.6427 234.541 11.44V4.688C234.541 4.48533 234.599 4.33067 234.717 4.224C234.845 4.10667 235.005 4.048 235.197 4.048C235.389 4.048 235.543 4.10667 235.661 4.224C235.778 4.33067 235.837 4.48533 235.837 4.688V11.44C235.837 11.6533 235.778 11.8133 235.661 11.92C235.543 12.0267 235.389 12.08 235.197 12.08ZM235.197 2.368C234.941 2.368 234.733 2.29333 234.573 2.144C234.413 1.99467 234.333 1.79733 234.333 1.552C234.333 1.31733 234.413 1.12533 234.573 0.976C234.733 0.826667 234.941 0.752 235.197 0.752C235.453 0.752 235.661 0.826667 235.821 0.976C235.981 1.12533 236.061 1.31733 236.061 1.552C236.061 1.79733 235.981 1.99467 235.821 2.144C235.661 2.29333 235.453 2.368 235.197 2.368ZM243.975 4.448C244.093 4.192 244.279 4.064 244.535 4.064C244.695 4.064 244.839 4.11733 244.967 4.224C245.095 4.33067 245.159 4.464 245.159 4.624C245.159 4.72 245.138 4.80533 245.095 4.88L241.975 11.6C241.911 11.7387 241.815 11.8507 241.687 11.936C241.559 12.0107 241.421 12.048 241.271 12.048C241.133 12.048 240.999 12.0107 240.871 11.936C240.743 11.8507 240.642 11.7387 240.567 11.6L237.463 4.88C237.421 4.80533 237.399 4.72533 237.399 4.64C237.399 4.48 237.469 4.34133 237.607 4.224C237.757 4.10667 237.917 4.048 238.087 4.048C238.194 4.048 238.295 4.08 238.391 4.144C238.498 4.208 238.578 4.29867 238.631 4.416L241.303 10.416L243.975 4.448ZM249.721 4.016C251.673 4.016 252.649 5.04 252.649 7.088V11.44C252.649 11.632 252.591 11.7867 252.473 11.904C252.367 12.0213 252.217 12.08 252.025 12.08C251.833 12.08 251.679 12.0213 251.561 11.904C251.444 11.7867 251.385 11.632 251.385 11.44V10.672C251.183 11.1307 250.873 11.488 250.457 11.744C250.041 11.9893 249.561 12.112 249.017 12.112C248.516 12.112 248.052 12.0107 247.625 11.808C247.209 11.6053 246.879 11.3227 246.633 10.96C246.388 10.5973 246.265 10.1973 246.265 9.76C246.265 9.17333 246.415 8.72 246.713 8.4C247.012 8.06933 247.503 7.83467 248.185 7.696C248.868 7.54667 249.817 7.472 251.033 7.472H251.385V6.944C251.385 6.304 251.252 5.83467 250.985 5.536C250.729 5.23733 250.308 5.088 249.721 5.088C248.996 5.088 248.26 5.28533 247.513 5.68C247.225 5.86133 247.023 5.952 246.905 5.952C246.777 5.952 246.671 5.904 246.585 5.808C246.5 5.712 246.457 5.58933 246.457 5.44C246.457 5.29067 246.5 5.16267 246.585 5.056C246.681 4.93867 246.831 4.82133 247.033 4.704C247.407 4.49067 247.828 4.32533 248.297 4.208C248.777 4.08 249.252 4.016 249.721 4.016ZM249.193 11.088C249.833 11.088 250.356 10.8747 250.761 10.448C251.177 10.0107 251.385 9.45067 251.385 8.768V8.304H251.097C250.159 8.304 249.444 8.34667 248.953 8.432C248.463 8.50667 248.111 8.64 247.897 8.832C247.695 9.01333 247.593 9.28533 247.593 9.648C247.593 10.064 247.743 10.4107 248.041 10.688C248.351 10.9547 248.735 11.088 249.193 11.088ZM258.338 12.112C257.613 12.112 256.967 11.9467 256.402 11.616C255.847 11.2853 255.415 10.816 255.106 10.208C254.807 9.6 254.658 8.896 254.658 8.096C254.658 7.296 254.813 6.58667 255.122 5.968C255.442 5.34933 255.885 4.86933 256.45 4.528C257.015 4.18667 257.666 4.016 258.402 4.016C258.807 4.016 259.207 4.07467 259.602 4.192C260.007 4.29867 260.359 4.45867 260.658 4.672C260.85 4.8 260.983 4.928 261.058 5.056C261.143 5.17333 261.186 5.30667 261.186 5.456C261.186 5.60533 261.143 5.728 261.058 5.824C260.983 5.92 260.882 5.968 260.754 5.968C260.679 5.968 260.599 5.94667 260.514 5.904C260.429 5.86133 260.354 5.81867 260.29 5.776C260.237 5.73333 260.199 5.70667 260.178 5.696C259.901 5.51467 259.634 5.37067 259.378 5.264C259.133 5.15733 258.829 5.104 258.466 5.104C257.687 5.104 257.079 5.37067 256.642 5.904C256.215 6.42667 256.002 7.15733 256.002 8.096C256.002 9.03467 256.215 9.76 256.642 10.272C257.079 10.784 257.687 11.04 258.466 11.04C258.829 11.04 259.138 10.9867 259.394 10.88C259.661 10.7733 259.927 10.6293 260.194 10.448C260.311 10.3733 260.423 10.3093 260.53 10.256C260.637 10.2027 260.727 10.176 260.802 10.176C260.919 10.176 261.015 10.224 261.09 10.32C261.175 10.416 261.218 10.5387 261.218 10.688C261.218 10.8267 261.181 10.9547 261.106 11.072C261.031 11.1787 260.893 11.3013 260.69 11.44C260.391 11.6427 260.029 11.808 259.602 11.936C259.186 12.0533 258.765 12.112 258.338 12.112ZM268.494 4.448C268.611 4.192 268.798 4.064 269.054 4.064C269.214 4.064 269.358 4.11733 269.486 4.224C269.614 4.33067 269.678 4.464 269.678 4.624C269.678 4.72 269.657 4.80533 269.614 4.88L265.118 14.576C265.065 14.6933 264.985 14.784 264.878 14.848C264.782 14.912 264.681 14.944 264.574 14.944C264.414 14.944 264.27 14.8907 264.142 14.784C264.025 14.688 263.966 14.56 263.966 14.4C263.966 14.3147 263.987 14.2293 264.03 14.144L265.15 11.728L261.982 4.88C261.939 4.80533 261.918 4.72533 261.918 4.64C261.918 4.48 261.987 4.34133 262.126 4.224C262.275 4.10667 262.435 4.048 262.606 4.048C262.713 4.048 262.814 4.08 262.91 4.144C263.017 4.208 263.097 4.29867 263.15 4.416L265.822 10.416L268.494 4.448ZM276.27 12.08C276.067 12.08 275.907 12.0213 275.79 11.904C275.673 11.776 275.614 11.6107 275.614 11.408V1.36C275.614 1.168 275.673 1.01333 275.79 0.896C275.918 0.778666 276.083 0.719999 276.286 0.719999H280.078C281.262 0.719999 282.179 1.008 282.83 1.584C283.491 2.16 283.822 2.976 283.822 4.032C283.822 5.088 283.491 5.90933 282.83 6.496C282.169 7.08267 281.251 7.376 280.078 7.376H276.926V11.408C276.926 11.6107 276.867 11.776 276.75 11.904C276.633 12.0213 276.473 12.08 276.27 12.08ZM279.95 6.288C281.667 6.288 282.526 5.536 282.526 4.032C282.526 2.54933 281.667 1.808 279.95 1.808H276.926V6.288H279.95ZM288.816 12.112C288.08 12.112 287.43 11.9467 286.864 11.616C286.31 11.2853 285.878 10.816 285.568 10.208C285.27 9.58933 285.12 8.87467 285.12 8.064C285.12 7.25333 285.27 6.544 285.568 5.936C285.878 5.31733 286.31 4.84267 286.864 4.512C287.43 4.18133 288.08 4.016 288.816 4.016C289.552 4.016 290.203 4.18133 290.768 4.512C291.334 4.84267 291.766 5.31733 292.064 5.936C292.374 6.544 292.528 7.25333 292.528 8.064C292.528 8.87467 292.374 9.58933 292.064 10.208C291.766 10.816 291.334 11.2853 290.768 11.616C290.203 11.9467 289.552 12.112 288.816 12.112ZM288.816 11.04C289.584 11.04 290.171 10.7893 290.576 10.288C290.992 9.776 291.2 9.03467 291.2 8.064C291.2 7.11467 290.992 6.384 290.576 5.872C290.16 5.34933 289.574 5.088 288.816 5.088C288.059 5.088 287.472 5.34933 287.056 5.872C286.64 6.384 286.432 7.11467 286.432 8.064C286.432 9.024 286.635 9.76 287.04 10.272C287.456 10.784 288.048 11.04 288.816 11.04ZM295.215 12.08C295.023 12.08 294.863 12.0267 294.735 11.92C294.618 11.8027 294.559 11.6427 294.559 11.44V1.28C294.559 1.07733 294.618 0.922666 294.735 0.815999C294.863 0.698666 295.023 0.639999 295.215 0.639999C295.397 0.639999 295.546 0.698666 295.663 0.815999C295.791 0.922666 295.855 1.07733 295.855 1.28V11.44C295.855 11.6427 295.791 11.8027 295.663 11.92C295.546 12.0267 295.397 12.08 295.215 12.08ZM299.034 12.08C298.842 12.08 298.682 12.0267 298.554 11.92C298.437 11.8027 298.378 11.6427 298.378 11.44V4.688C298.378 4.48533 298.437 4.33067 298.554 4.224C298.682 4.10667 298.842 4.048 299.034 4.048C299.226 4.048 299.381 4.10667 299.498 4.224C299.615 4.33067 299.674 4.48533 299.674 4.688V11.44C299.674 11.6533 299.615 11.8133 299.498 11.92C299.381 12.0267 299.226 12.08 299.034 12.08ZM299.034 2.368C298.778 2.368 298.57 2.29333 298.41 2.144C298.25 1.99467 298.17 1.79733 298.17 1.552C298.17 1.31733 298.25 1.12533 298.41 0.976C298.57 0.826667 298.778 0.752 299.034 0.752C299.29 0.752 299.498 0.826667 299.658 0.976C299.818 1.12533 299.898 1.31733 299.898 1.552C299.898 1.79733 299.818 1.99467 299.658 2.144C299.498 2.29333 299.29 2.368 299.034 2.368ZM305.413 12.112C304.688 12.112 304.042 11.9467 303.477 11.616C302.922 11.2853 302.49 10.816 302.181 10.208C301.882 9.6 301.733 8.896 301.733 8.096C301.733 7.296 301.888 6.58667 302.197 5.968C302.517 5.34933 302.96 4.86933 303.525 4.528C304.09 4.18667 304.741 4.016 305.477 4.016C305.882 4.016 306.282 4.07467 306.677 4.192C307.082 4.29867 307.434 4.45867 307.733 4.672C307.925 4.8 308.058 4.928 308.133 5.056C308.218 5.17333 308.261 5.30667 308.261 5.456C308.261 5.60533 308.218 5.728 308.133 5.824C308.058 5.92 307.957 5.968 307.829 5.968C307.754 5.968 307.674 5.94667 307.589 5.904C307.504 5.86133 307.429 5.81867 307.365 5.776C307.312 5.73333 307.274 5.70667 307.253 5.696C306.976 5.51467 306.709 5.37067 306.453 5.264C306.208 5.15733 305.904 5.104 305.541 5.104C304.762 5.104 304.154 5.37067 303.717 5.904C303.29 6.42667 303.077 7.15733 303.077 8.096C303.077 9.03467 303.29 9.76 303.717 10.272C304.154 10.784 304.762 11.04 305.541 11.04C305.904 11.04 306.213 10.9867 306.469 10.88C306.736 10.7733 307.002 10.6293 307.269 10.448C307.386 10.3733 307.498 10.3093 307.605 10.256C307.712 10.2027 307.802 10.176 307.877 10.176C307.994 10.176 308.09 10.224 308.165 10.32C308.25 10.416 308.293 10.5387 308.293 10.688C308.293 10.8267 308.256 10.9547 308.181 11.072C308.106 11.1787 307.968 11.3013 307.765 11.44C307.466 11.6427 307.104 11.808 306.677 11.936C306.261 12.0533 305.84 12.112 305.413 12.112ZM315.569 4.448C315.686 4.192 315.873 4.064 316.129 4.064C316.289 4.064 316.433 4.11733 316.561 4.224C316.689 4.33067 316.753 4.464 316.753 4.624C316.753 4.72 316.732 4.80533 316.689 4.88L312.193 14.576C312.14 14.6933 312.06 14.784 311.953 14.848C311.857 14.912 311.756 14.944 311.649 14.944C311.489 14.944 311.345 14.8907 311.217 14.784C311.1 14.688 311.041 14.56 311.041 14.4C311.041 14.3147 311.062 14.2293 311.105 14.144L312.225 11.728L309.057 4.88C309.014 4.80533 308.993 4.72533 308.993 4.64C308.993 4.48 309.062 4.34133 309.201 4.224C309.35 4.10667 309.51 4.048 309.681 4.048C309.788 4.048 309.889 4.08 309.985 4.144C310.092 4.208 310.172 4.29867 310.225 4.416L312.897 10.416L315.569 4.448Z" fill="#2ECC71"/>
</svg>
